# xmcd
#
# Track frame offsets:
#  150
#  24860
#  51775
#  82564
#  114501
#  140254
#  171386
#  197536
#  224075
#
# Disc length: 3314 seconds
#
# Revision: 3
# Processed by: cddbd v1.5.1PL2 Copyright (c) Steve Scherf et al.
# Submitted via: Collectorz.com_Music_Collector 6.11
#
DISCID=710cf009
DTITLE=Michael Hill - Electric Storyland [CD1)
DYEAR=2003
DGENRE=Blues
TTITLE0=Heart Of New York
TTITLE1=Ready For The Blues
TTITLE2=Monticello Nights
TTITLE3=Michael Hill - Jon Tiven - Sally Tiven - Let's Talk About The Weather
TTITLE4=Michael Hill - Kevin Hill - Anthony Lewis - Women Make The World Go 'round
TTITLE5=Undercover
TTITLE6=Grandmother's Blues
TTITLE7=Terrible Twos
TTITLE8=Blessings
EXTD=
EXTT0=
EXTT1=
EXTT2=
EXTT3=
EXTT4=
EXTT5=
EXTT6=
EXTT7=
EXTT8=
PLAYORDER=
